<svg width="387" height="250" viewBox="0 0 387 250" fill="none" xmlns="http://www.w3.org/2000/svg">
<g clip-path="url(#clip0_13872_523)">
<path d="M387 0H0V250H387V0Z" fill="black"/>
<path d="M377.565 216.69H359.23C356.949 216.69 355.1 218.539 355.1 220.82V231.77C355.1 234.051 356.949 235.9 359.23 235.9H377.565C379.846 235.9 381.695 234.051 381.695 231.77V220.82C381.695 218.539 379.846 216.69 377.565 216.69Z" fill="white"/>
<path d="M377.565 176.645H359.23C356.949 176.645 355.1 178.494 355.1 180.775V191.725C355.1 194.006 356.949 195.855 359.23 195.855H377.565C379.846 195.855 381.695 194.006 381.695 191.725V180.775C381.695 178.494 379.846 176.645 377.565 176.645Z" fill="white"/>
<path d="M377.565 136.29H359.23C356.949 136.29 355.1 138.139 355.1 140.42V151.37C355.1 153.651 356.949 155.5 359.23 155.5H377.565C379.846 155.5 381.695 153.651 381.695 151.37V140.42C381.695 138.139 379.846 136.29 377.565 136.29Z" fill="white"/>
<path d="M377.565 95.9351H359.23C356.949 95.9351 355.1 97.7841 355.1 100.065V111.015C355.1 113.296 356.949 115.145 359.23 115.145H377.565C379.846 115.145 381.695 113.296 381.695 111.015V100.065C381.695 97.7841 379.846 95.9351 377.565 95.9351Z" fill="white"/>
<path d="M377.565 55.2651H359.23C356.949 55.2651 355.1 57.1142 355.1 59.3951V70.3451C355.1 72.6261 356.949 74.4751 359.23 74.4751H377.565C379.846 74.4751 381.695 72.6261 381.695 70.3451V59.3951C381.695 57.1142 379.846 55.2651 377.565 55.2651Z" fill="white"/>
<path d="M377.565 13.9702H359.23C356.949 13.9702 355.1 15.8193 355.1 18.1002V29.0502C355.1 31.3312 356.949 33.1802 359.23 33.1802H377.565C379.846 33.1802 381.695 31.3312 381.695 29.0502V18.1002C381.695 15.8193 379.846 13.9702 377.565 13.9702Z" fill="white"/>
<path d="M27.3595 216.69H9.02453C6.74359 216.69 4.89453 218.539 4.89453 220.82V231.77C4.89453 234.051 6.74359 235.9 9.02453 235.9H27.3595C29.6405 235.9 31.4895 234.051 31.4895 231.77V220.82C31.4895 218.539 29.6405 216.69 27.3595 216.69Z" fill="white"/>
<path d="M27.3595 176.645H9.02453C6.74359 176.645 4.89453 178.494 4.89453 180.775V191.725C4.89453 194.006 6.74359 195.855 9.02453 195.855H27.3595C29.6405 195.855 31.4895 194.006 31.4895 191.725V180.775C31.4895 178.494 29.6405 176.645 27.3595 176.645Z" fill="white"/>
<path d="M27.3595 136.29H9.02453C6.74359 136.29 4.89453 138.139 4.89453 140.42V151.37C4.89453 153.651 6.74359 155.5 9.02453 155.5H27.3595C29.6405 155.5 31.4895 153.651 31.4895 151.37V140.42C31.4895 138.139 29.6405 136.29 27.3595 136.29Z" fill="white"/>
<path d="M27.3595 95.9351H9.02453C6.74359 95.9351 4.89453 97.7841 4.89453 100.065V111.015C4.89453 113.296 6.74359 115.145 9.02453 115.145H27.3595C29.6405 115.145 31.4895 113.296 31.4895 111.015V100.065C31.4895 97.7841 29.6405 95.9351 27.3595 95.9351Z" fill="white"/>
<path d="M27.3595 55.2651H9.02453C6.74359 55.2651 4.89453 57.1142 4.89453 59.3951V70.3451C4.89453 72.6261 6.74359 74.4751 9.02453 74.4751H27.3595C29.6405 74.4751 31.4895 72.6261 31.4895 70.3451V59.3951C31.4895 57.1142 29.6405 55.2651 27.3595 55.2651Z" fill="white"/>
<path d="M27.3595 13.9702H9.02453C6.74359 13.9702 4.89453 15.8193 4.89453 18.1002V29.0502C4.89453 31.3312 6.74359 33.1802 9.02453 33.1802H27.3595C29.6405 33.1802 31.4895 31.3312 31.4895 29.0502V18.1002C31.4895 15.8193 29.6405 13.9702 27.3595 13.9702Z" fill="white"/>
</g>
<defs>
<clipPath id="clip0_13872_523">
<rect width="387" height="250" fill="white"/>
</clipPath>
</defs>
</svg>
