
    <!-- SVG Sprite -->
    <svg width="0" height="0" class="hidden">
  <symbol fill="none" xmlns="http://www.w3.org/2000/svg" viewBox="0 0 14 10" id="arrow">
    <path d="M12.4819 5.59212H1.50309C1.16651 5.59212 0.894043 5.31965 0.894043 4.98307C0.894043 4.64649 1.16651 4.37402 1.50309 4.37402H12.4819C12.8185 4.37402 13.091 4.64649 13.091 4.98307C13.091 5.31965 12.8185 5.59212 12.4819 5.59212Z" fill="white"></path>
    <path d="M12.4982 5.6081C12.354 5.6081 12.2097 5.56002 12.0975 5.44782L7.35339 1.04025C7.11298 0.815867 7.09695 0.431206 7.32134 0.190793C7.54572 -0.04962 7.93038 -0.0656475 8.17079 0.158738L12.9149 4.56631C13.1554 4.79069 13.1714 5.17536 12.947 5.41577C12.8348 5.54399 12.6745 5.6081 12.5143 5.6081H12.4982Z" fill="white"></path>
    <path d="M7.73845 10.0002C7.57818 10.0002 7.4179 9.93608 7.30571 9.80786C7.08132 9.56744 7.09735 9.18278 7.33777 8.9584L12.0819 4.55083C12.3223 4.32644 12.707 4.34247 12.9314 4.58288C13.1558 4.8233 13.1397 5.20796 12.8993 5.43234L8.15517 9.83991C8.04298 9.95211 7.89873 10.0002 7.75448 10.0002H7.73845Z" fill="white"></path>
  </symbol>
</svg>
