<?xml version="1.0" encoding="UTF-8"?>
<svg id="_レイヤー_2" data-name="レイヤー 2" xmlns="http://www.w3.org/2000/svg" xmlns:xlink="http://www.w3.org/1999/xlink" viewBox="0 0 219.64 286.73">
  <defs>
    <style>
      .cls-1 {
        fill: none;
      }

      .cls-2 {
        fill: #e75400;
      }

      .cls-3 {
        clip-path: url(#clippath);
      }

      .cls-4 {
        fill: #f9be03;
      }
    </style>
    <clipPath id="clippath">
      <rect class="cls-1" width="219.64" height="286.73"/>
    </clipPath>
  </defs>
  <g id="_モチーフ" data-name="モチーフ">
    <g class="cls-3">
      <g>
        <g>
          <path class="cls-2" d="M215.6,25.85c-3.09-5.03-7.76-5.83-10.31-5.98-2.75-.2-7.41,1.95-11.41,4.95-2.77,2.39-8.47,8.22-21.82,28.58,2.44-.48,7.03-1.1,7.31-1.2,3.09-1.08,12-6.36,13.31-7.58,1.08-.95,3.22-4.02,4.75-2.84,1.24,1.35-4.56,5.11-4.58,5.13-2.17,1.65-16.93,8.01-18.71,8.56,1.23.02,8.94.99,10.1.99s4.66-.88,5.06-.91c12.51-2.12,18.82-9.23,21.28-11.81,2.25-2.36,8.95-11.51,5.02-17.89Z"/>
          <g>
            <path class="cls-2" d="M175.05,36.11s0,0,0,0c0,0,0,0,0,0Z"/>
            <g>
              <path class="cls-2" d="M161.73,14.89s0,.01-.01.02l-.02.04s0,0,0-.01c0-.01.01-.03.02-.04Z"/>
              <g>
                <path class="cls-2" d="M168.22,22.11s-1.92,13.12-1.93,13.62c-.01.37-.54,6.38,3.06,16.53.06-.17,6.86-14.15,7.19-15,.22-.58,4.8-14.62,4.92-15.17.02-.07,4.41-11.73.16-17.07-.61-.8-2.11-1.29-3.64-1.5-.77-.06-1.66-.06-2.36-.02-.88.05-5.06.54-7.32,1.39-1.03.37-6.05,4.35-6.96,6.07-.81,1.36-1.89,3.96-2.6,6.73-.35,1.25-1.24,6.66-1.13,9.93.11,10.57,5.25,17.59,8.51,22.67"/>
                <polygon class="cls-2" points="164.6 37.64 164.6 37.63 164.6 37.63 164.6 37.63 164.6 37.64"/>
              </g>
            </g>
          </g>
          <g>
            <path d="M166.78,23c-2.11,10.16-3.49,20.9.67,30.73.32.75,1.41.9,2.05.54.78-.44.85-1.31.54-2.05-3.8-8.99-2.29-19.17-.37-28.42.39-1.88-2.5-2.69-2.89-.8h0Z"/>
            <path d="M166.72,22.88c-2.11,10.16-3.49,20.9.67,30.73.32.75,1.41.9,2.05.54.78-.44.85-1.31.54-2.05-3.8-8.99-2.29-19.17-.37-28.42.39-1.88-2.5-2.69-2.89-.8h0Z"/>
            <path d="M195.58,41.4c-7.07,7-16.61,11.22-26.55,11.7-1.92.09-1.93,3.09,0,3,10.73-.51,21.03-5.01,28.67-12.58,1.37-1.36-.75-3.48-2.12-2.12h0Z"/>
            <path d="M171.26,55.25c-5.81-6.27-10.68-13.77-12.31-22.28-1.31-6.83-.42-14.75,3.22-20.77,3.3-5.47,8.95-8.39,15.3-8.17,1.64.06,3.25.58,4.16,2.02.97,1.52.76,3.31.59,5.02-.46,4.62-1.5,9.16-2.83,13.6-3.03,10.12-7.57,19.7-11.19,29.61-.63,1.73,1.81,2.41,2.74,1.16.77-1.03,6.38-7.51,2.99-8.51-1.2-.36-2,.82-2.59,1.64-1.18,1.66-2.11,3.52-2.98,5.36-.69,1.44,1.14,3.17,2.36,1.82,5.43-6.05,9.54-13.13,14.31-19.69,4.28-5.88,9.52-12.14,16.81-14.17,1.83-.51,3.49-.64,5.36-.22,2.02.45,4.01,1.3,5.58,2.66s2.41,2.94,2.61,5.02c.17,1.76-.04,3.5-.55,5.19-2.08,6.92-8.32,12.48-14.26,16.19-9.06,5.65-20.11,4.79-30.4,4.38-1.93-.08-1.93,2.92,0,3,10.13.4,21.22,1.26,30.4-3.89,6.75-3.79,13.38-9.65,16.43-16.9,1.48-3.52,2.19-8.14.54-11.74-1.9-4.12-6.78-6.48-11.06-7.06-3.97-.54-8.1,1.07-11.43,3.15s-6.36,5.04-8.95,8.14c-6.33,7.57-10.92,16.47-17.52,23.82l2.36,1.82c.7-1.47,1.45-2.93,2.31-4.32.26-.42.53-.86.84-1.25-.09.12.32-.55.21-.26-.32.88-1.59-2.03-2.24-1.33-.17.19.11-.24-.04.09-.2.43-.45.85-.69,1.25-.9,1.5-1.93,2.91-2.97,4.31l2.74,1.16c3.54-9.7,7.97-19.09,11-28.98,1.48-4.83,2.58-9.78,3.1-14.81.41-3.95-.35-7.96-4.43-9.63-3.31-1.35-7.81-.68-11.09.52s-6.05,3.17-8.21,5.82c-4.79,5.87-6.48,13.97-5.99,21.41.7,10.71,6.5,20.26,13.64,27.97,1.32,1.42,3.43-.71,2.12-2.12h0Z"/>
          </g>
        </g>
        <path class="cls-4" d="M166.48,54.07c-2.26-.63-3.97-1.21-7.04-1.13-2.22.04-4.43.24-6.48,1.3-2.48,1.25-7.22,4.56-7.77,11.91-3.3-.91-8.97-1.8-10.57.21-1.75,2.07-5.66,4.77-5.08,12.62-6.29-1.75-11.67,2.17-14.07,5.22-3.61,4.57-3.57,9.37-2.26,14.15-2.53-1.22-11.33,2.35-15.72,7.25-5.43,9.05-3.39,15.96.22,20.37-7.18-1.43-15.1,3.74-17.34,6.92-2.35,3.58-4.89,12.89,1.13,20.25-3.41,0-14.46-4.45-24.29,5.45-3.65,3.71-11.77,12.28-4.5,26.9-13.53-5.38-22.62.65-27.78,6.33-1.33,3.66-12,12.58-3.75,25.97-16.25,1.23-16.38,14.95-17.19,17.37-.54,1.44-3.42,26.62,25.46,28.32.94.63,0,17.06,16.72,20.26,3.37.64,15.56,1.16,22.82-11.59,1.32,4.31,14.52,9.1,24.38,4.6,5.89-2.69,11.7-7.34,11.2-23.18,10.47,3.91,20.31-1.05,26.83-11.11,4.33-6.67,4.29-19.15-3.42-25.16,7.55.04,11.48-1.13,20.29-13.81,3.42-12.83.94-26.08-4.73-28.75,7.27,3.17,11.96-3.97,14.25-7.41.93-2.22,4.95-7.52-2.57-19.16,7.16,1.16,12.34-8.13,13.31-9.54,1.05-1.16,4.97-15.48-3.41-22.9,4.09-.52,6.9-2.53,9.3-7.17,2.84-5.18-1.26-9.92-2.92-11.67,4.47-.1,5.7-3.83,7.42-9.25.47-4.78-1.77-8.78-3.44-10.5,2.43-3.13,2.47-11.25,1.69-13.06-.8-2.69-4.17-7.84-10.72-10.02Z"/>
        <path d="M130.48,98.57c-3.3.17-6.41,1.82-8.49,4.39s-3.21,5.96-2.72,9.39c.12.8,1.13,1.24,1.85,1.05.86-.24,1.16-1.04,1.05-1.85.03.22-.02-.21-.02-.25-.01-.16-.02-.33-.03-.49,0-.35,0-.71.04-1.06,0-.08.02-.16.02-.24-.01.1-.01.1,0,0,.03-.16.06-.32.09-.48.07-.32.15-.63.25-.94.33-1.05,1-2.29,1.7-3.12.42-.5.89-.97,1.39-1.4.37-.31.89-.67,1.44-.98,1.06-.59,2.29-.95,3.44-1.01.81-.04,1.5-.66,1.5-1.5,0-.78-.69-1.54-1.5-1.5h0Z"/>
        <path d="M115.86,190.27c-1.14,3.02-2.7,5.97-5.14,8.11-2.2,1.92-5,2.66-7.98,2.44-.81-.06-1.5.73-1.5,1.5,0,.86.69,1.44,1.5,1.5,3.67.27,7.17-.82,9.97-3.2s4.72-6.02,6.05-9.54c.29-.76-.32-1.64-1.05-1.85-.84-.23-1.56.29-1.85,1.05h0Z"/>
        <path d="M39.98,226.68c-1.25,7.1,3.71,14.7,10.93,15.99.8.14,1.62-.22,1.85-1.05.2-.73-.25-1.7-1.05-1.85-5.54-.99-9.81-6.77-8.83-12.3.14-.8-.21-1.62-1.05-1.85-.72-.2-1.7.25-1.85,1.05h0Z"/>
        <path d="M131.61,79.34c-1.17-3.67-.31-7.49,2.49-10.15,1.1-1.04,2.66-1.98,4.26-2.48,2.11-.66,4.17-.36,6.08.73,1.68.96,3.19-1.63,1.51-2.59-2.48-1.42-5.3-1.89-8.07-1.13-2.11.58-4.17,1.74-5.78,3.23-3.64,3.36-4.88,8.5-3.38,13.19.58,1.83,3.48,1.05,2.89-.8h0Z"/>
        <path d="M114.28,97.28c-1.4-1.78-.9-4.51-.32-6.5s1.47-4.13,2.76-5.78c2.63-3.35,8.32-5.55,12.43-4.09,1.82.65,2.61-2.25.8-2.89-4.31-1.53-9.61.17-13.13,2.82s-5.5,6.9-6.19,11.04c-.45,2.69-.21,5.33,1.53,7.52.5.64,1.6.53,2.12,0,.63-.63.5-1.48,0-2.12h0Z"/>
        <path d="M98.78,124.91c-4.92-4.23-3.99-11.41-1.21-16.63s9.29-9.07,15.44-8.44c1.92.2,1.9-2.8,0-3-7.24-.74-14.94,3.81-18.2,10.24s-4.06,14.87,1.84,19.95c1.46,1.25,3.59-.86,2.12-2.12h0Z"/>
        <path d="M82.27,151.85c-3.84-2.49-3.62-8.77-2.84-12.69.99-5.02,4.37-8.77,9.16-10.67,2.68-1.06,5.71-1.61,8.57-1.06,1.89.36,2.7-2.53.8-2.89-6.2-1.18-13.23,1.26-17.49,5.89-3.83,4.17-4.98,10.28-4.25,15.78.43,3.25,1.7,6.4,4.54,8.24,1.62,1.05,3.13-1.54,1.51-2.59h0Z"/>
        <path d="M53.66,184.73c-1.68-3.19-2.97-6.66-3.04-10.31-.06-3.18.89-6.2,2.56-8.9,3.49-5.62,9.63-10.51,16.18-11.85,3.93-.8,7.96-.22,11.76.91,1.85.55,2.65-2.34.8-2.89-7.57-2.24-15.31-1.7-21.94,2.82-6.23,4.25-11.86,10.72-12.33,18.56-.28,4.63,1.3,9.13,3.42,13.18.9,1.71,3.49.19,2.59-1.51h0Z"/>
        <path d="M22.25,216.73c-4.95-6.35-3.29-14.9,1.04-21.08,1.93-2.75,4.56-5.21,7.27-7.18,2.52-1.83,5.33-3.22,8.43-3.7,4.43-.69,8.89.52,12.97,2.17,1.79.72,2.57-2.18.8-2.89-4.11-1.66-8.6-2.82-13.07-2.37-3.63.37-7.02,1.7-10.02,3.76-6.67,4.58-12.24,11.41-13.32,19.62-.66,5.02.67,9.81,3.78,13.79,1.19,1.52,3.3-.62,2.12-2.12h0Z"/>
        <path d="M176.35,77.97c3.57-3.71,4.53-8.82,2.81-13.64-1.57-4.39-4.85-8.41-9.01-10.58-5.79-3.03-14.31-3.43-19.93.16-4.15,2.65-6.05,7.12-6.61,11.86-.23,1.91,2.77,1.9,3,0,.4-3.39,1.73-6.78,4.54-8.87,2.33-1.74,5.27-2.4,8.13-2.46,2.65-.05,5.31.37,7.82,1.24,3.56,1.24,6.47,4.16,8.25,7.42,2.3,4.22,2.34,9.16-1.12,12.75-1.34,1.39.78,3.51,2.12,2.12h0Z"/>
        <path d="M20.04,216.35c-5.57.82-10.63,3.42-13.97,8.03-2.66,3.67-3.9,8.23-4.23,12.7-.58,7.81,2.08,16.09,8,21.41,5.37,4.82,12.57,6.45,19.62,6.49,1.93,0,1.93-2.99,0-3-5.78-.03-11.79-1.13-16.47-4.74-3.17-2.44-5.44-5.89-6.8-9.63-2.26-6.26-2.07-13.99,1.35-20.01,2.82-4.96,7.75-7.56,13.28-8.37,1.9-.28,1.09-3.17-.8-2.89h0Z"/>
        <path d="M29.26,263.08c-.95,4.32-.4,8.74,1.85,12.57,1.97,3.35,5.04,6.07,8.48,7.85,6.71,3.47,14.67,2.88,21.33-.45,4.29-2.14,7.65-5.62,9.37-10.11.69-1.81-2.21-2.59-2.89-.8-2.51,6.57-9.62,10.03-16.28,10.64-6.29.57-12.68-2.09-16.48-7.23-2.52-3.4-3.38-7.54-2.48-11.67.41-1.88-2.48-2.69-2.89-.8h0Z"/>
        <path d="M67.71,272.92c2.68,3.77,6.46,6.5,11.05,7.39,3.89.75,7.94.34,11.7-.83,5.52-1.7,11.3-5.29,13.79-10.71,2.28-4.98,2.06-10.61,1.31-15.91-.27-1.9-3.16-1.09-2.89.8.6,4.26.79,8.83-.73,12.92-.9,2.43-2.57,4.45-4.62,6.02-4.48,3.44-10.2,5.42-15.87,5.05-4.53-.29-8.52-2.55-11.15-6.24-1.11-1.56-3.71-.06-2.59,1.51h0Z"/>
        <path d="M103.83,254.88c8.17,4.14,17.51,2.22,24-4.09,5.75-5.59,8.59-14.05,7.76-22-.46-4.38-2.05-8.58-5.23-11.71-1.38-1.35-3.5.77-2.12,2.12,4.95,4.86,5.27,12.67,3.54,19.01-1.88,6.88-6.9,13.03-13.85,15.2-4.22,1.31-8.65.88-12.58-1.12-1.72-.87-3.24,1.72-1.51,2.59h0Z"/>
        <path d="M128.71,219.21c8.99.82,16.72-5.97,20.34-13.7,3.04-6.49,3.53-14.59,1.75-21.5-1.08-4.22-3.29-8.06-6.94-10.55-1.6-1.09-3.1,1.51-1.51,2.59,5.65,3.85,6.69,11.71,6.35,18.02-.36,6.82-2.91,13.21-8.06,17.86-3.3,2.98-7.46,4.69-11.93,4.28-1.92-.17-1.91,2.83,0,3h0Z"/>
        <path d="M143.47,176.54c6.08,1,11.4-1.71,14.7-6.81,2.91-4.5,3.15-9.76,1.91-14.88-.72-2.99-2.02-5.96-4.21-8.16-1.36-1.37-3.48.75-2.12,2.12,2.07,2.08,3.09,5,3.65,7.82.51,2.57.67,5.45-.07,8-1.64,5.66-7.08,10.01-13.07,9.03-1.89-.31-2.7,2.58-.8,2.89h0Z"/>
        <path d="M155.64,149.68c6.83-.33,12.48-6.04,15.05-12.03,2.22-5.16,2.14-11.44.09-16.65-1.11-2.83-2.87-5.46-5.62-6.91-1.71-.9-3.23,1.69-1.51,2.59,5.15,2.7,6.2,10.45,5.48,15.63-.88,6.43-6.55,14.03-13.5,14.37-1.92.09-1.93,3.09,0,3h0Z"/>
        <path d="M164.75,117.19c5.37,1.31,9.7-3.54,11.45-8.05s0-10.68-4.04-13.63c-.66-.48-1.67-.11-2.05.54-.44.76-.12,1.57.54,2.05,2.94,2.14,3.96,6.72,2.74,10.04-1.09,2.98-4.18,7.05-7.83,6.15-1.88-.46-2.67,2.43-.8,2.89h0Z"/>
        <path d="M171.4,98.31c4.82-.11,7.77-4.77,8.92-8.96.63-2.3.52-4.6-.12-6.89s-1.75-4.83-3.63-6.36c-.63-.52-1.5-.61-2.12,0-.53.52-.63,1.61,0,2.12,1.44,1.17,2.26,3.02,2.78,4.77s.73,3.56.26,5.37c-.74,2.86-2.65,6.89-6.09,6.96-1.93.04-1.93,3.04,0,3h0Z"/>
      </g>
    </g>
  </g>
</svg>