<svg width="815" height="837" viewBox="0 0 815 837" fill="none" xmlns="http://www.w3.org/2000/svg">
<path d="M815 557.664V0H20.0754C8.98373 0 0 7.98877 0 17.8472V539.817C0 549.675 8.98373 557.664 20.0754 557.664H659.416C740.44 557.664 641.087 612.605 663.3 639.601C693.283 676.036 814.046 566.302 815 557.664Z" fill="#CCE5F1"/>
<g clip-path="url(#clip0_13544_616)">
<g clip-path="url(#clip1_13544_616)">
<path d="M650.04 692.02C650.04 680.411 640.629 671 629.02 671C617.411 671 608 680.411 608 692.02C608 703.629 617.411 713.04 629.02 713.04C640.629 713.04 650.04 703.629 650.04 692.02Z" fill="#CCE5F1"/>
</g>
<g clip-path="url(#clip2_13544_616)">
<path d="M589.04 756.02C589.04 744.411 579.629 735 568.02 735C556.411 735 547 744.411 547 756.02C547 767.629 556.411 777.04 568.02 777.04C579.629 777.04 589.04 767.629 589.04 756.02Z" fill="#CCE5F1"/>
</g>
<path d="M527.04 816.02C527.04 804.411 517.629 795 506.02 795C494.411 795 485 804.411 485 816.02C485 827.629 494.411 837.04 506.02 837.04C517.629 837.04 527.04 827.629 527.04 816.02Z" fill="#CCE5F1"/>
</g>
<defs>
<clipPath id="clip0_13544_616">
<rect width="165.4" height="165.88" fill="white" transform="translate(485 671)"/>
</clipPath>
<clipPath id="clip1_13544_616">
<rect width="42.04" height="42.04" fill="white" transform="translate(608 671)"/>
</clipPath>
<clipPath id="clip2_13544_616">
<rect width="42.04" height="42.04" fill="white" transform="translate(547 735)"/>
</clipPath>
</defs>
</svg>
