<?xml version="1.0" encoding="UTF-8"?>
<svg id="_レイヤー_2" data-name="レイヤー 2" xmlns="http://www.w3.org/2000/svg" xmlns:xlink="http://www.w3.org/1999/xlink" viewBox="0 0 512 512">
  <defs>
    <style>
      .cls-1 {
        fill: none;
      }

      .cls-2 {
        fill: #e75400;
      }

      .cls-3 {
        clip-path: url(#clippath);
      }

      .cls-4 {
        fill: #f9be03;
      }
    </style>
    <clipPath id="clippath">
      <rect class="cls-1" width="512" height="512"/>
    </clipPath>
  </defs>
  <g id="_レイヤー_3" data-name="レイヤー 3">
    <g class="cls-3">
      <g>
        <g>
          <path class="cls-2" d="M497.36,64.86c-4.18-10.8-12.89-14.01-17.74-15.21-5.23-1.37-14.97,1.12-23.76,5.48-6.19,3.63-21.75,13.74-54.73,48.24,4.88-.05,16.43-.62,17.01-.61,6.41.1,22.67-5.26,25.63-7.14,2.41-1.45,8.81-5.93,11.82-6.33-2.68,4.59-10.49,7.58-10.53,7.61-4.77,2.4-41.47,8.27-45.1,8.7,3.78,4.17,23.8,6.7,26.05,7.11s10.82,1.29,11.6,1.37c24.88.37,38.06-12.42,43.7-16.52,5.17-3.76,21.35-19.01,16.05-32.71Z"/>
          <g>
            <path class="cls-2" d="M415.52,70.21s0,0,0,0c0,0,0,0,0,0Z"/>
            <g>
              <path class="cls-2" d="M397.37,24.54s-.02.02-.03.03l-.04.07s.02-.02.02-.02c.02-.02.03-.04.05-.07Z"/>
              <g>
                <path class="cls-2" d="M407.32,40.77s-8.36,24.61-8.58,25.57c-.16.72-4.8,16.24-.58,36.49.19-.31,18.85-28.37,19.79-29.89.63-1.03,14.47-26.49,14.89-27.5.05-.13,12.68-21.05,6.39-32.86-.89-1.77-3.61-3.24-6.49-4.2-1.46-.39-3.18-.71-4.55-.87-1.72-.21-9.95-.77-14.61.08-2.12.35-13.22,6.23-15.59,9.23-2.05,2.34-5.06,6.97-7.41,12.05-1.12,2.28-4.76,12.4-5.71,18.74-3.55,20.43,5.56,41.36,10.04,52.33"/>
                <polygon class="cls-2" points="394.81 69.43 394.82 69.41 394.82 69.41 394.82 69.42 394.81 69.43"/>
              </g>
            </g>
          </g>
          <g>
            <path d="M405.43,42.87c-5.86,14.36-11.02,29.61-10.91,45.31.03,4.41.53,8.82,1.49,13.13.42,1.88,3.32,1.09,2.89-.8-4.34-19.31,2.16-39.08,9.41-56.84.73-1.79-2.17-2.56-2.89-.8h0Z"/>
            <path d="M405.36,42.6c-5.83,14.27-11.1,29.36-11.01,44.97.03,4.39.52,8.77,1.48,13.05.42,1.88,3.32,1.09,2.89-.8-4.32-19.23,2.32-38.76,9.53-56.42.73-1.79-2.17-2.56-2.89-.8h0Z"/>
            <path d="M454.13,88.83c-12.75,8.73-27.95,13.67-43.4,14.11-4.34.12-8.7-.09-13.01-.69-.81-.11-1.6.2-1.85,1.05-.2.7.25,1.73,1.05,1.85,15.93,2.2,32.26-.25,46.86-6.99,4.14-1.91,8.1-4.17,11.85-6.74,1.58-1.08.08-3.69-1.51-2.59h0Z"/>
            <path d="M400.27,106.67c-9.67-15.21-16.84-32.91-16.05-51.22.33-7.72,2.16-15.48,5.12-22.61,2.5-6.03,6.02-11.73,10.69-16.31,4.32-4.23,9.61-7.36,15.5-8.8,3.04-.74,6.16-1.01,9.29-.89,3.34.13,7.23.48,10.27,1.94s5.13,3.95,5.73,7.27c.69,3.79-.78,7.61-1.9,11.18-2.67,8.47-6.26,16.62-10.37,24.48-8.28,15.84-18.52,30.54-27.83,45.77-1.18,1.94-2.35,3.88-3.5,5.84-.88,1.5,1.12,2.96,2.36,1.82,1.54-1.42,3.08-2.83,4.59-4.27.77-.73,1.79-1.51,1.15-2.73-.32-.6-1.07-.83-1.69-.69s-1.24.85-1.71,1.27c-.82.72-1.63,1.45-2.43,2.18s-1.59,1.44-2.37,2.18c-.51.49-1.4,1.16-1.32,1.95.08.71.42,1.2,1.1,1.45.78.28,1.42-.32,1.97-.75,1.19-.95,2.39-1.88,3.57-2.85,3.31-2.73,6.48-5.63,9.57-8.6,6.47-6.23,12.63-12.78,19.07-19.04,11.34-11.04,24.87-23.13,41.42-24.42,1.92-.15,4.04-.32,5.94.1,2.07.46,4.09,1.16,6,2.07,3.87,1.86,7.51,4.54,9.99,8.09,1.18,1.68,2.37,3.71,2.64,5.77.23,1.76.2,3.6.03,5.36-.32,3.31-1.37,6.57-2.88,9.53-3.24,6.35-8.42,11.59-14.06,15.86s-11.69,7.67-18.09,10.39-12.58,4.25-19.42,4.64c-11.7.67-23.24-1.57-34.6-4.12-2.93-.66-5.86-1.33-8.79-1.99-1.88-.42-2.68,2.47-.8,2.89,19.63,4.43,40.94,10.13,60.63,2.96,6.51-2.37,12.77-5.52,18.55-9.33,6.3-4.16,12.18-9.18,16.54-15.4s6.62-13.08,5.95-20.36c-.41-4.47-3.25-8.59-6.44-11.61s-7.31-5.42-11.58-6.86c-7.8-2.62-16.79-.45-24.12,2.73-7.84,3.4-14.77,8.65-21.16,14.25-6.91,6.06-13.28,12.71-19.74,19.24-6.3,6.36-12.73,12.47-19.72,18.07-.24.2-.48.4-.73.59.52-.4.08-.03.04-.03-.02,0-.03.03-.05.04h-.02c-.35.2.02.16,1.11-.12l1.1,1.45c.08.71-.75,1.3-.06.65.25-.24.5-.48.75-.72.73-.68,1.47-1.36,2.21-2.03s1.45-1.31,2.18-1.95c.26-.23.52-.45.78-.68.51-.45.09-.03-.24.05l-1.69-.69h0v-1.51c.19-.42.19-.23-.1.04-.32.3-.63.61-.95.91-1.4,1.32-2.81,2.63-4.23,3.93l2.36,1.82c9.56-16.25,20.5-31.68,29.53-48.24,4.43-8.13,8.38-16.55,11.39-25.31,2.44-7.07,5.75-15.8-.1-22.15-2.69-2.92-6.42-4.05-10.21-4.7-3.45-.59-6.96-.8-10.44-.47-6.47.61-12.66,2.96-17.87,6.85-11.61,8.66-17.84,23.03-20.12,37-3.07,18.89,2.78,37.91,12.01,54.28,1.16,2.06,2.39,4.09,3.66,6.09,1.03,1.62,3.63.12,2.59-1.51h0Z"/>
          </g>
        </g>
        <path class="cls-4" d="M392.6,101.78c-4.14-2.02-7.23-3.76-13.17-4.68-4.3-.72-8.64-1.12-12.96.2-5.23,1.52-15.55,6.23-19.21,20.2-6.05-2.93-16.66-6.66-20.46-3.36-4.1,3.36-12.61,7.18-14.28,22.54-11.51-5.6-23.27.04-28.99,5.05-8.58,7.52-10.23,16.8-9.4,26.49-4.44-3.25-22.68.49-32.89,8.4-13.69,15.53-12.23,29.58-6.83,39.37-13.33-5.31-30.45,1.83-35.89,7.17-5.8,6.07-14.02,23.11-5.03,39.45-6.57-1.21-26.3-13.73-48.77,1.86-8.36,5.86-27.08,19.5-18.25,50.28-24.17-15.19-43.85-6.79-55.83,2.31-3.86,6.59-27.62,19.99-16.48,48.75-31.76-3.42-36.9,23.01-39.33,27.38-1.55,2.58-16.06,50.11,39.02,63.67,1.59,1.54-6.07,32.91,25.03,45.03,6.27,2.44,29.6,7.78,48.13-14.22,1.02,8.79,24.76,22.73,45.38,17.55,12.31-3.09,25.18-9.99,29.85-40.71,18.8,11.26,39.53,5.21,55.7-11.87,10.72-11.33,15.08-35.4,2.36-49.74,14.55,2.77,22.54,1.91,44.05-19.41,11.15-23.53,11.1-49.96,1.11-57.11,12.9,8.71,24.48-3.39,30.12-9.22,2.59-3.95,12.22-12.75,1.86-37.87,13.38,4.79,26.68-11.28,29.06-13.65,2.45-1.87,15.1-28.08,1.58-45.37,8.06.45,14.21-2.43,20.49-10.52,7.31-8.98,1.1-19.58-1.47-23.54,8.65,1.4,12.36-5.35,17.59-15.2,2.6-9.04-.29-17.57-2.89-21.48,5.8-5.18,8.76-20.82,7.92-24.59-.59-5.47-5.25-16.61-17.1-23.14Z"/>
        <path d="M306.81,176.17c-12.16-1.61-24.09,8.77-24.55,20.93-.07,1.93,2.93,1.93,3,0,.41-10.68,11.06-19.32,21.55-17.93.81.11,1.49-.77,1.5-1.5,0-.9-.7-1.39-1.5-1.5h0Z"/>
        <path d="M247.86,346.94c-3.37,5.59-7.56,11.03-13.26,14.41-5.32,3.15-11.37,3.72-17.3,2.17-1.87-.49-2.67,2.4-.8,2.89,6.59,1.73,13.39,1.11,19.34-2.31,6.28-3.61,10.92-9.53,14.61-15.64,1-1.66-1.59-3.17-2.59-1.51h0Z"/>
        <path d="M88.42,390.5c-4.74,12.66,2.51,27.94,15.06,32.64,1.81.68,2.59-2.22.8-2.89-11.13-4.17-17.1-17.93-12.97-28.95.68-1.81-2.22-2.59-2.89-.8h0Z"/>
        <path d="M314.93,138.35c-.82-6.36.93-12.59,5.46-17.21,3.77-3.84,9.23-6.28,14.62-6.54,4.18-.2,8.02,1.26,11.19,3.95,1.46,1.24,3.6-.87,2.12-2.12-3.21-2.72-6.95-4.5-11.17-4.81-3.61-.26-7.25.59-10.58,1.93-5.65,2.27-10.4,6.56-12.89,12.16-1.77,3.98-2.3,8.32-1.74,12.63.24,1.89,3.25,1.91,3,0h0Z"/>
        <path d="M275.42,167.45c-1.76-3.29-1.21-7.13-.04-10.52,1.26-3.65,3.31-7.05,5.62-10.12,1.99-2.63,4.22-4.91,7.12-6.52,3.4-1.89,7.29-3.04,11.15-3.43,4.17-.42,8.63-.1,12.31,2.06,1.67.98,3.18-1.61,1.51-2.59-7.44-4.35-17.6-2.93-25.05.63-3.49,1.67-6.28,4.08-8.68,7.1-2.68,3.38-4.98,7.08-6.54,11.12-1.7,4.43-2.33,9.46,0,13.79.91,1.7,3.5.19,2.59-1.51h0Z"/>
        <path d="M235.47,214.91c-6.87-8.41-4.77-19.71.18-28.5,2.41-4.27,5.44-8.14,9.41-11.05s8.37-4.9,13.08-6.01c4.99-1.17,10.26-1.25,15.2.23,1.85.56,2.65-2.34.8-2.89-9.95-2.98-21.3-.34-29.73,5.46s-15.04,16.56-16.23,27.15c-.73,6.46,1.06,12.7,5.17,17.73,1.22,1.5,3.33-.64,2.12-2.12h0Z"/>
        <path d="M194.55,261.54c-3.6-3.35-4.55-8.35-4.44-13.08.12-5.11,1.39-10.25,3.33-14.96,1.76-4.26,4.37-8.01,7.96-10.92,4.29-3.48,9.63-5.58,15.02-6.57,5.72-1.04,11.84-.8,17.28,1.35,1.8.71,2.58-2.19.8-2.89-10.61-4.19-24.14-1.95-33.35,4.56s-13.24,17.25-13.97,27.88c-.41,5.96.68,12.5,5.24,16.75,1.41,1.31,3.54-.8,2.12-2.12h0Z"/>
        <path d="M127.21,314.2c-2.02-6.41-3.25-13.12-2.57-19.85.58-5.74,2.77-11.17,6.17-15.81,3.96-5.41,9.42-9.6,15.1-13.05,6.45-3.92,13.62-6.88,21.21-7.49,8.98-.72,17.68,1.83,25.62,5.9,1.72.88,3.24-1.71,1.51-2.59-7.47-3.82-15.61-6.47-24.08-6.43-7.95.03-15.62,2.46-22.58,6.2-11.94,6.41-23.04,16.33-25.53,30.24-1.42,7.95-.15,16.06,2.25,23.69.58,1.84,3.47,1.05,2.89-.8h0Z"/>
        <path d="M55.45,365.04c-3.6-6.82-4.42-14.6-2.5-22.05s5.92-13.76,11.08-19.09c4.89-5.05,10.96-9.03,17.22-12.2,5.73-2.9,11.98-4.77,18.44-4.69,9.17.12,17.72,4.02,25.32,8.88,1.63,1.04,3.14-1.55,1.51-2.59-7.31-4.68-15.43-8.39-24.17-9.16-7.01-.61-13.9.97-20.28,3.84-13.92,6.27-26.64,17.2-31.41,32.1-2.83,8.83-2.14,18.25,2.19,26.47.9,1.71,3.49.19,2.59-1.51h0Z"/>
        <path d="M402.21,150.26c3.72-2.62,6.67-6.03,8.4-10.26,1.54-3.75,1.99-7.91,1.58-11.93-.84-8.31-4.85-16.41-10.8-22.26-4.76-4.68-11.13-7.56-17.51-9.27s-13.95-2.28-20.55-.07c-9.16,3.07-14.82,10.9-17.57,19.87-.57,1.85,2.33,2.64,2.89.8,2.23-7.26,6.51-13.93,13.66-17.08,5.75-2.54,12.39-2.48,18.44-1.19,5.6,1.2,11.48,3.36,16.05,6.89,5.95,4.6,10.14,11.67,11.81,18.95.93,4.05,1.03,8.33-.14,12.34-1.27,4.36-4.08,8.02-7.78,10.62-1.57,1.1-.07,3.71,1.51,2.59h0Z"/>
        <path d="M52.7,364.03c-10.67-.43-21.21,2.56-29.02,10.07-6.25,6.02-10.21,14.13-12.35,22.46-1.64,6.41-2.28,13.01-1.44,19.59,1.08,8.35,3.86,16.47,9.02,23.2,7.12,9.29,17.75,14.84,28.93,17.72,1.85.48,3.73.88,5.61,1.23s2.7-2.54.8-2.89c-11.45-2.14-22.84-6.55-30.84-15.32-5.5-6.04-8.75-13.67-10.16-21.66-1.07-6.02-.92-12.06.28-18.01,1.56-7.76,4.62-15.46,9.79-21.54,6.28-7.39,15.18-11.36,24.81-11.83,1.52-.07,3.05-.07,4.57,0,1.93.08,1.93-2.92,0-3h0Z"/>
        <path d="M54.94,456.53c-3.34,7.85-3.8,16.5-.66,24.5,2.85,7.27,8,13.44,14.32,17.99,5.61,4.04,11.93,6.32,18.77,7.06,6.88.75,14.05.15,20.66-1.95,8.17-2.59,15.35-7.64,19.81-15.04,1-1.66-1.59-3.17-2.59-1.51-7.22,11.99-21.73,16.43-35.07,15.73-6.08-.32-11.86-1.81-17.11-4.94-6.1-3.64-11.29-8.93-14.57-15.25-4.08-7.85-4.44-16.93-.97-25.08.75-1.76-1.84-3.29-2.59-1.51h0Z"/>
        <path d="M125.71,488.41c3.61,7.85,9.81,13.91,17.84,17.12,6.75,2.7,14.3,3.27,21.49,2.49,5.6-.61,10.83-2.07,15.96-4.35,5.36-2.38,10.15-5.68,13.69-10.42,6.25-8.36,7.83-19.42,8.24-29.56.08-1.93-2.92-1.93-3,0-.36,8.86-1.62,18.3-6.41,25.97-2.96,4.75-7.27,8.16-12.25,10.59-10.27,5-22.7,6.75-33.85,3.44-8.69-2.58-15.34-8.6-19.11-16.8-.81-1.75-3.39-.23-2.59,1.51h0Z"/>
        <path d="M201.48,465.78c6.49,5,14.44,7.85,22.66,7.8s15.9-2.71,22.59-7.07c12.96-8.45,21.12-23.09,22.65-38.39.83-8.32-.66-17.04-5.57-23.95-1.11-1.56-3.71-.06-2.59,1.51,8.36,11.78,6,28.06-.16,40.27-6.55,12.97-19.24,23.24-34.05,24.5-8.73.74-17.1-1.94-24.01-7.26-.65-.5-1.67-.09-2.05.54-.46.77-.1,1.56.54,2.05h0Z"/>
        <path d="M261.12,405.34c17.12,4.89,34.22-5.99,43.64-19.77,3.62-5.31,6-11.36,7.64-17.55,1.83-6.91,2.8-14.2,2.25-21.35-.61-7.97-3.22-15.84-9.03-21.54-1.38-1.35-3.5.77-2.12,2.12,9.74,9.55,9.45,25.06,6.63,37.44-1.29,5.67-3.15,11.32-6.07,16.37-3.89,6.73-9.5,12.6-16.07,16.76-7.79,4.93-17.06,7.21-26.07,4.64-1.86-.53-2.65,2.36-.8,2.89h0Z"/>
        <path d="M305.53,328.56c5.53,2.03,11.57,2.3,17.15.27,4.92-1.79,9.2-5.04,12.61-8.97,2.99-3.45,5.15-7.2,6.32-11.63,1.28-4.84,1.68-9.99,1.31-14.98-.4-5.47-1.67-11.17-4.85-15.75-1.09-1.57-3.7-.08-2.59,1.51,5.09,7.32,5.45,17.81,3.74,26.28-.82,4.06-2.29,7.65-4.82,10.94-2.83,3.68-6.41,6.85-10.6,8.88-5.56,2.7-11.72,2.66-17.47.55-1.82-.67-2.6,2.23-.8,2.89h0Z"/>
        <path d="M337.79,280.85c12.42,1.79,24.44-6.6,31.36-16.27,6.4-8.94,8.42-20.86,6.57-31.59-1-5.77-3.47-11.34-8.19-14.99-.65-.5-1.67-.09-2.05.54-.46.77-.1,1.56.54,2.05,3.68,2.84,5.59,7.38,6.54,11.8,1.04,4.85,1.03,10.01.26,14.9s-2.2,9.34-4.72,13.46c-3.11,5.07-7.45,9.46-12.47,12.64s-11.06,5.43-17.04,4.56c-.81-.12-1.6.2-1.85,1.05-.2.7.25,1.73,1.05,1.85h0Z"/>
        <path d="M367.31,221.54c6.57,3,14.06-.37,18.83-5.13,5.44-5.43,8.04-12.71,6.98-20.35-.58-4.16-2.28-8.12-5.2-11.17-1.34-1.4-3.46.73-2.12,2.12,4.37,4.56,5.46,11.65,3.95,17.63s-6.45,11.76-12.28,14.04c-2.71,1.06-5.92,1.51-8.65.26-1.74-.8-3.27,1.79-1.51,2.59h0Z"/>
        <path d="M386.47,187.4c7.2,1.21,13.05-3.85,16.79-9.47,1.69-2.54,3.22-5.45,3.87-8.45.77-3.54.61-7.23,0-10.78s-1.83-7.42-4.27-10.24c-1.26-1.46-3.38.67-2.12,2.12,1.75,2.03,2.61,4.82,3.19,7.39.7,3.08.97,6.37.53,9.51-.75,5.34-4.3,10.74-8.37,14.15-2.45,2.05-5.58,3.43-8.82,2.89-1.89-.32-2.7,2.57-.8,2.89h0Z"/>
      </g>
    </g>
  </g>
</svg>